<svg xmlns="http://www.w3.org/2000/svg" xmlns:xlink="http://www.w3.org/1999/xlink" fill="none" version="1.1" width="22" height="22" viewBox="0 0 22 22"><defs><clipPath id="master_svg0_1751_35194"><rect x="0" y="0" width="22" height="22" rx="0"/></clipPath></defs><g clip-path="url(#master_svg0_1751_35194)"><g><path d="M12.9360546875,9.15196630859375L14.4320546875,9.15196630859375L14.4320546875,6.02796630859375C14.4320546875,4.22396630859375,12.980054687500001,2.72796630859375,11.1320546875,2.72796630859375L10.1640546875,2.72796630859375C8.3600546875,2.72796630859375,6.8640546874999995,4.17996630859375,6.8640546874999995,6.02796630859375L6.8640546874999995,7.34796630859375L8.272054687499999,7.34796630859375L8.272054687499999,6.071966308593749Q8.3600546875,4.31196630859375,10.0320546875,4.31196630859375Q11.5720546875,4.31196630859375,11.2640546875,4.31196630859375Q12.9360546875,4.22396630859375,12.9360546875,5.93996630859375Q12.9360546875,7.83196630859375,12.9360546875,9.15196630859375ZM5.4560546875,10.11996630859375L5.4560546875,14.25596630859375C5.4560546875,17.02796630859375,7.7000546875,19.31596630859375,10.516054687499999,19.31596630859375L10.868054687499999,19.31596630859375C13.6400546875,19.31596630859375,15.9280546875,17.07196630859375,15.9280546875,14.25596630859375L15.9280546875,10.11996630859375L5.4560546875,10.11996630859375ZM11.2640546875,14.07996630859375L11.2640546875,15.48796630859375C11.2640546875,15.83996630859375,11.0000546875,16.103966308593748,10.6480546875,16.103966308593748C10.2960546875,16.103966308593748,10.0320546875,15.83996630859375,10.0320546875,15.48796630859375L10.0320546875,14.07996630859375C9.6800546875,13.85996630859375,9.4160546875,13.46396630859375,9.4160546875,13.02396630859375C9.4160546875,12.31996630859375,9.9880546875,11.79196630859375,10.6480546875,11.79196630859375C11.3520546875,11.79196630859375,11.8800546875,12.36396630859375,11.8800546875,13.02396630859375C11.9240546875,13.46396630859375,11.6600546875,13.85996630859375,11.2640546875,14.07996630859375Z" fill="#0E5ED8" fill-opacity="1"/></g></g></svg>