<svg xmlns="http://www.w3.org/2000/svg" xmlns:xlink="http://www.w3.org/1999/xlink" fill="none" version="1.1" width="20" height="20" viewBox="0 0 20 20"><defs><clipPath id="master_svg0_1751_35222"><rect x="0" y="0" width="20" height="20" rx="0"/></clipPath></defs><g clip-path="url(#master_svg0_1751_35222)"><g><path d="M11.84374875,10.82617125C13.39061875,10.12305125,14.46871875,8.56250125,14.46871875,6.74805125C14.46871875,4.27539125,12.47071875,2.26953125,10.00585875,2.26953125C7.54101875,2.26953125,5.54296875,4.27539125,5.54296875,6.75000125C5.54296875,8.564451250000001,6.62109875,10.12500125,8.16796875,10.82812125C4.79296875,11.60937125,2.21874975,14.48833125,1.88671875,18.02543125L18.12501875,18.02543125C17.79491875,14.48633125,15.22071875,11.60937125,11.84374875,10.82617125ZM10.00585875,9.68359125C9.12109875,9.68359125,8.359378750000001,9.20508125,7.97265875,8.50781125C7.81445875,8.46875125,7.69726875,8.33984125,7.69726875,8.17773125C7.69726875,7.98633125,7.86132875,7.83008125,8.06249875,7.83008125C8.22070875,7.83008125,8.351558749999999,7.92773125,8.40234875,8.06250125L8.54882875,8.06250125C8.78710875,8.60742125,9.34960875,8.98828125,10.00585875,8.98828125C10.66210875,8.98828125,11.22460875,8.60547125,11.46288875,8.06250125L11.60937875,8.06250125C11.66015875,7.92773125,11.79101875,7.83008125,11.94921875,7.83008125C12.15041875,7.83008125,12.31441875,7.98633125,12.31441875,8.17773125C12.31441875,8.33984125,12.19531875,8.46875125,12.03901875,8.50781125C11.65038875,9.20508125,10.89062875,9.68359125,10.00585875,9.68359125Z" fill="#0E5ED8" fill-opacity="1"/></g></g></svg>